<svg width="82" height="45" viewBox="0 0 82 45" fill="none" xmlns="http://www.w3.org/2000/svg">
<path d="M0 1.01807C0 0.532255 0.393827 0.138428 0.879638 0.138428H31.7685C32.2543 0.138428 32.6482 0.532255 32.6482 1.01807V28.6759C32.6482 37.6914 25.3396 44.9999 16.3241 44.9999V44.9999C7.30854 44.9999 0 37.6914 0 28.6759V1.01807Z" fill="#333333"/>
<path d="M7.44475 21.326C7.85289 21.326 8.25704 21.2455 8.63411 21.0891C9.01118 20.9327 9.3538 20.7034 9.6424 20.4144C9.931 20.1254 10.1599 19.7823 10.3161 19.4046C10.4723 19.027 10.5527 18.6223 10.5527 18.2136C10.5527 17.8048 10.4723 17.4001 10.3161 17.0225C10.1599 16.6448 9.931 16.3017 9.6424 16.0127C9.3538 15.7237 9.01118 15.4944 8.63411 15.338C8.25704 15.1816 7.85289 15.1011 7.44475 15.1011C7.0366 15.1011 6.63246 15.1816 6.25538 15.338C5.87831 15.4944 5.53569 15.7237 5.24709 16.0127C4.95849 16.3017 4.72956 16.6448 4.57337 17.0225C4.41718 17.4001 4.33679 17.8048 4.33679 18.2136C4.33679 18.6223 4.41718 19.027 4.57337 19.4046C4.72956 19.7823 4.95849 20.1254 5.24709 20.4144C5.53569 20.7034 5.87831 20.9327 6.25538 21.0891C6.63246 21.2455 7.0366 21.326 7.44475 21.326ZM5.7289 23.401C3.82527 23.401 2.27777 24.9508 2.27777 26.8572C2.27777 27.8104 3.04828 28.5885 4.00657 28.5885H7.63899C8.15699 26.3773 9.76276 24.5877 11.8606 23.816C11.375 23.5502 10.8117 23.401 10.2225 23.401H5.7289ZM23.768 28.5885C23.2111 27.0128 21.832 25.8262 20.1485 25.5408C19.896 25.4955 19.637 25.476 19.3715 25.476H14.1916C13.9261 25.476 13.6671 25.4955 13.4146 25.5408C11.7311 25.8262 10.352 27.0128 9.79514 28.5885C9.62032 29.0748 9.52967 29.6 9.52967 30.1447C9.52967 31.0071 10.2225 31.701 11.0836 31.701H22.4795C23.3406 31.701 23.9078 31.0071 23.9078 30.1447C23.9078 29.6 23.9428 29.0748 23.768 28.5885ZM20.9255 19.251C20.9255 18.1504 20.4889 17.0948 19.7118 16.3166C18.9346 15.5383 17.8806 15.1011 16.7816 15.1011C15.6825 15.1011 14.6285 15.5383 13.8514 16.3166C13.0742 17.0948 12.6376 18.1504 12.6376 19.251C12.6376 20.3517 13.0742 21.4072 13.8514 22.1855C14.6285 22.9638 15.6825 23.401 16.7816 23.401C17.8806 23.401 18.9346 22.9638 19.7118 22.1855C20.4889 21.4072 20.9255 20.3517 20.9255 19.251Z" fill="#F5F5F5"/>
<path d="M11.7157 17.4724H21.8038L22.1095 18.6581H11.4536L11.7157 17.4724Z" fill="#333333"/>
<path d="M16.1896 11.5439C15.8621 11.5439 15.5976 11.8089 15.5976 12.1368V12.1794V14.0247C15.5976 14.1284 15.5143 14.2118 15.4107 14.2118C15.3441 14.2118 15.2812 14.1766 15.2479 14.1173L14.36 12.5629C12.9891 13.2391 12.0456 14.6527 12.0456 16.2868V17.4725H21.5175V16.2423C21.5008 14.6268 20.5611 13.2336 19.2032 12.5629L18.3152 14.1173C18.2819 14.1766 18.219 14.2118 18.1524 14.2118C18.0488 14.2118 17.9656 14.1284 17.9656 14.0247V12.1794V12.1368C17.9656 11.8089 17.701 11.5439 17.3736 11.5439H16.1896ZM11.7607 18.0653C11.5905 18.0653 11.4536 18.2024 11.4536 18.3729C11.4536 18.4599 11.4906 18.5433 11.5609 18.5933C11.9624 18.8879 13.5219 19.8439 16.7816 19.8439C20.0412 19.8439 21.6007 18.8879 22.0022 18.5933C22.0725 18.5415 22.1095 18.4599 22.1095 18.3729C22.1095 18.2024 21.9726 18.0653 21.8024 18.0653H11.7607Z" fill="#F5F5F5"/>
<path d="M25.2553 33.6108C25.6949 33.7835 26.1883 33.7835 26.628 33.6109C30.9457 31.9326 31.9545 28.0171 31.9545 25.7358C31.9545 24.9621 31.4493 24.33 30.7827 24.0777L30.7827 24.0777L30.7777 24.0758L26.6016 22.5208C26.601 22.5206 26.6005 22.5204 26.5999 22.5202C26.1757 22.3613 25.7043 22.3613 25.2801 22.5202C25.2795 22.5204 25.279 22.5206 25.2785 22.5208L21.1024 24.0758L21.1024 24.0758L21.0973 24.0777C20.4307 24.33 19.9255 24.9621 19.9255 25.7358C19.9255 28.0173 20.9345 31.9325 25.2553 33.6108ZM26.94 26.4561L28.155 26.909C27.9801 27.7055 27.6102 28.5369 26.94 29.2218V26.4561Z" fill="#F5F5F5" stroke="#333333" stroke-width="2"/>
<path d="M26.4014 21.326C26.8096 21.326 27.2137 21.2455 27.5908 21.0891C27.9679 20.9327 28.3105 20.7034 28.5991 20.4144C28.8877 20.1254 29.1166 19.7823 29.2728 19.4046C29.429 19.027 29.5094 18.6223 29.5094 18.2136C29.5094 17.8048 29.429 17.4001 29.2728 17.0225C29.1166 16.6448 28.8877 16.3017 28.5991 16.0127C28.3105 15.7237 27.9679 15.4944 27.5908 15.338C27.2137 15.1816 26.8096 15.1011 26.4014 15.1011C25.9933 15.1011 25.5892 15.1816 25.2121 15.338C24.835 15.4944 24.4924 15.7237 24.2038 16.0127C23.9152 16.3017 23.6863 16.6448 23.5301 17.0225C23.3739 17.4001 23.2935 17.8048 23.2935 18.2136C23.2935 18.6223 23.3739 19.027 23.5301 19.4046C23.6863 19.7823 23.9152 20.1254 24.2038 20.4144C24.4924 20.7034 24.835 20.9327 25.2121 21.0891C25.5892 21.2455 25.9933 21.326 26.4014 21.326Z" fill="#F5F5F5"/>
</svg>
